<mxfile host="app.diagrams.net" modified="2022-04-25T10:20:22.464Z" agent="5.0 (Windows NT 10.0; Win64; x64) AppleWebKit/537.36 (KHTML, like Gecko) Chrome/100.0.4896.88 Safari/537.36" etag="VoUvWfPX-cQWbFQ4vKXs" version="17.4.4" type="github" pages="5">
  <diagram id="C5RBs43oDa-KdzZeNtuy" name="删除退出家庭">
    <mxGraphModel dx="782" dy="513" grid="1" gridSize="10" guides="1" tooltips="1" connect="1" arrows="1" fold="1" page="1" pageScale="1" pageWidth="827" pageHeight="1169" math="0" shadow="0">
      <root>
        <mxCell id="WIyWlLk6GJQsqaUBKTNV-0" />
        <mxCell id="WIyWlLk6GJQsqaUBKTNV-1" parent="WIyWlLk6GJQsqaUBKTNV-0" />
        <mxCell id="WIyWlLk6GJQsqaUBKTNV-2" value="" style="rounded=0;html=1;jettySize=auto;orthogonalLoop=1;fontSize=11;endArrow=block;endFill=0;endSize=8;strokeWidth=1;shadow=0;labelBackgroundColor=none;edgeStyle=orthogonalEdgeStyle;" parent="WIyWlLk6GJQsqaUBKTNV-1" target="WIyWlLk6GJQsqaUBKTNV-6" edge="1">
          <mxGeometry relative="1" as="geometry">
            <mxPoint x="390" y="240" as="sourcePoint" />
          </mxGeometry>
        </mxCell>
        <mxCell id="WIyWlLk6GJQsqaUBKTNV-4" value="Yes" style="rounded=0;html=1;jettySize=auto;orthogonalLoop=1;fontSize=11;endArrow=block;endFill=0;endSize=8;strokeWidth=1;shadow=0;labelBackgroundColor=none;edgeStyle=orthogonalEdgeStyle;entryX=0.5;entryY=0;entryDx=0;entryDy=0;" parent="WIyWlLk6GJQsqaUBKTNV-1" source="WIyWlLk6GJQsqaUBKTNV-6" target="mwSsWJYTHsI-j-IHyEZh-3" edge="1">
          <mxGeometry y="20" relative="1" as="geometry">
            <mxPoint as="offset" />
            <mxPoint x="390" y="460" as="targetPoint" />
            <Array as="points" />
          </mxGeometry>
        </mxCell>
        <mxCell id="WIyWlLk6GJQsqaUBKTNV-6" value="用户把该设备添加到了微信？" style="rhombus;whiteSpace=wrap;html=1;shadow=0;fontFamily=Helvetica;fontSize=12;align=center;strokeWidth=1;spacing=6;spacingTop=-4;" parent="WIyWlLk6GJQsqaUBKTNV-1" vertex="1">
          <mxGeometry x="320" y="340" width="140" height="80" as="geometry" />
        </mxCell>
        <mxCell id="_pQ_e1QaEOG_pFHMruiR-2" value="" style="edgeStyle=orthogonalEdgeStyle;rounded=0;orthogonalLoop=1;jettySize=auto;html=1;" parent="WIyWlLk6GJQsqaUBKTNV-1" source="_pQ_e1QaEOG_pFHMruiR-0" edge="1">
          <mxGeometry relative="1" as="geometry">
            <mxPoint x="390" y="170" as="targetPoint" />
          </mxGeometry>
        </mxCell>
        <mxCell id="_pQ_e1QaEOG_pFHMruiR-0" value="用户退出家庭" style="rounded=1;whiteSpace=wrap;html=1;fontSize=12;glass=0;strokeWidth=1;shadow=0;" parent="WIyWlLk6GJQsqaUBKTNV-1" vertex="1">
          <mxGeometry x="330" y="60" width="120" height="50" as="geometry" />
        </mxCell>
        <mxCell id="_pQ_e1QaEOG_pFHMruiR-13" value="家庭下是否有设备？" style="rhombus;whiteSpace=wrap;html=1;" parent="WIyWlLk6GJQsqaUBKTNV-1" vertex="1">
          <mxGeometry x="330" y="170" width="120" height="80" as="geometry" />
        </mxCell>
        <mxCell id="_pQ_e1QaEOG_pFHMruiR-19" value="删除家庭" style="rounded=1;whiteSpace=wrap;html=1;fontSize=12;glass=0;strokeWidth=1;shadow=0;" parent="WIyWlLk6GJQsqaUBKTNV-1" vertex="1">
          <mxGeometry x="560" y="60" width="120" height="50" as="geometry" />
        </mxCell>
        <mxCell id="_pQ_e1QaEOG_pFHMruiR-27" value="" style="edgeStyle=orthogonalEdgeStyle;rounded=0;orthogonalLoop=1;jettySize=auto;html=1;exitX=0.5;exitY=1;exitDx=0;exitDy=0;entryX=0.5;entryY=0;entryDx=0;entryDy=0;" parent="WIyWlLk6GJQsqaUBKTNV-1" source="_pQ_e1QaEOG_pFHMruiR-41" target="_pQ_e1QaEOG_pFHMruiR-42" edge="1">
          <mxGeometry relative="1" as="geometry">
            <mxPoint x="395.0000000000002" y="770" as="sourcePoint" />
            <mxPoint x="390" y="848" as="targetPoint" />
            <Array as="points" />
          </mxGeometry>
        </mxCell>
        <mxCell id="_pQ_e1QaEOG_pFHMruiR-30" value="" style="edgeStyle=orthogonalEdgeStyle;rounded=0;orthogonalLoop=1;jettySize=auto;html=1;" parent="WIyWlLk6GJQsqaUBKTNV-1" source="_pQ_e1QaEOG_pFHMruiR-31" edge="1">
          <mxGeometry relative="1" as="geometry">
            <mxPoint x="195" y="860" as="targetPoint" />
          </mxGeometry>
        </mxCell>
        <mxCell id="mwSsWJYTHsI-j-IHyEZh-21" value="No" style="edgeLabel;html=1;align=center;verticalAlign=middle;resizable=0;points=[];" parent="_pQ_e1QaEOG_pFHMruiR-30" vertex="1" connectable="0">
          <mxGeometry x="-0.0531" y="2" relative="1" as="geometry">
            <mxPoint as="offset" />
          </mxGeometry>
        </mxCell>
        <mxCell id="_pQ_e1QaEOG_pFHMruiR-31" value="注册到微信的设备是否&lt;span&gt;为可用状态？&lt;/span&gt;" style="rhombus;whiteSpace=wrap;html=1;" parent="WIyWlLk6GJQsqaUBKTNV-1" vertex="1">
          <mxGeometry x="270" y="610" width="240" height="60" as="geometry" />
        </mxCell>
        <mxCell id="_pQ_e1QaEOG_pFHMruiR-35" value="" style="endArrow=classic;html=1;rounded=0;entryX=1;entryY=0.5;entryDx=0;entryDy=0;exitX=0;exitY=0.5;exitDx=0;exitDy=0;" parent="WIyWlLk6GJQsqaUBKTNV-1" edge="1">
          <mxGeometry width="50" height="50" relative="1" as="geometry">
            <mxPoint x="315" y="890" as="sourcePoint" />
            <mxPoint x="250" y="890" as="targetPoint" />
          </mxGeometry>
        </mxCell>
        <mxCell id="_pQ_e1QaEOG_pFHMruiR-40" value="end" style="rounded=1;whiteSpace=wrap;html=1;" parent="WIyWlLk6GJQsqaUBKTNV-1" vertex="1">
          <mxGeometry x="90" y="860" width="160" height="60" as="geometry" />
        </mxCell>
        <mxCell id="_pQ_e1QaEOG_pFHMruiR-42" value="&lt;span&gt;用户设备关联关系设置为不可用状态&lt;/span&gt;" style="rounded=1;whiteSpace=wrap;html=1;" parent="WIyWlLk6GJQsqaUBKTNV-1" vertex="1">
          <mxGeometry x="305" y="860" width="170" height="60" as="geometry" />
        </mxCell>
        <mxCell id="mwSsWJYTHsI-j-IHyEZh-0" value="" style="rounded=0;html=1;jettySize=auto;orthogonalLoop=1;fontSize=11;endArrow=block;endFill=0;endSize=8;strokeWidth=1;shadow=0;labelBackgroundColor=none;edgeStyle=orthogonalEdgeStyle;entryX=0.5;entryY=0;entryDx=0;entryDy=0;exitX=0.5;exitY=1;exitDx=0;exitDy=0;" parent="WIyWlLk6GJQsqaUBKTNV-1" source="mwSsWJYTHsI-j-IHyEZh-1" target="WIyWlLk6GJQsqaUBKTNV-6" edge="1">
          <mxGeometry relative="1" as="geometry">
            <mxPoint x="265" y="270" as="targetPoint" />
            <Array as="points">
              <mxPoint x="110" y="340" />
            </Array>
          </mxGeometry>
        </mxCell>
        <mxCell id="mwSsWJYTHsI-j-IHyEZh-1" value="管理员删除家庭成员" style="rounded=1;whiteSpace=wrap;html=1;fontSize=12;glass=0;strokeWidth=1;shadow=0;" parent="WIyWlLk6GJQsqaUBKTNV-1" vertex="1">
          <mxGeometry x="50" y="60" width="120" height="50" as="geometry" />
        </mxCell>
        <mxCell id="_pQ_e1QaEOG_pFHMruiR-41" value="&lt;span&gt;把用户设备关联关系同步到微信侧&lt;/span&gt;" style="rounded=1;whiteSpace=wrap;html=1;" parent="WIyWlLk6GJQsqaUBKTNV-1" vertex="1">
          <mxGeometry x="290" y="730" width="200" height="60" as="geometry" />
        </mxCell>
        <mxCell id="mwSsWJYTHsI-j-IHyEZh-3" value="用户可以操作设备卡片？" style="rhombus;whiteSpace=wrap;html=1;" parent="WIyWlLk6GJQsqaUBKTNV-1" vertex="1">
          <mxGeometry x="270" y="480" width="240" height="60" as="geometry" />
        </mxCell>
        <mxCell id="mwSsWJYTHsI-j-IHyEZh-4" value="Yes" style="rounded=0;html=1;jettySize=auto;orthogonalLoop=1;fontSize=11;endArrow=block;endFill=0;endSize=8;strokeWidth=1;shadow=0;labelBackgroundColor=none;edgeStyle=orthogonalEdgeStyle;exitX=0.5;exitY=1;exitDx=0;exitDy=0;entryX=0.5;entryY=0;entryDx=0;entryDy=0;" parent="WIyWlLk6GJQsqaUBKTNV-1" source="mwSsWJYTHsI-j-IHyEZh-3" target="_pQ_e1QaEOG_pFHMruiR-31" edge="1">
          <mxGeometry y="20" relative="1" as="geometry">
            <mxPoint as="offset" />
            <mxPoint x="400" y="560" as="targetPoint" />
            <mxPoint x="400" y="430" as="sourcePoint" />
            <Array as="points">
              <mxPoint x="390" y="560" />
              <mxPoint x="390" y="560" />
            </Array>
          </mxGeometry>
        </mxCell>
        <mxCell id="mwSsWJYTHsI-j-IHyEZh-7" value="" style="endArrow=classic;html=1;rounded=0;exitX=0.5;exitY=1;exitDx=0;exitDy=0;entryX=0.5;entryY=0;entryDx=0;entryDy=0;" parent="WIyWlLk6GJQsqaUBKTNV-1" source="_pQ_e1QaEOG_pFHMruiR-31" target="_pQ_e1QaEOG_pFHMruiR-41" edge="1">
          <mxGeometry width="50" height="50" relative="1" as="geometry">
            <mxPoint x="420" y="690" as="sourcePoint" />
            <mxPoint x="470" y="640" as="targetPoint" />
          </mxGeometry>
        </mxCell>
        <mxCell id="mwSsWJYTHsI-j-IHyEZh-9" value="" style="endArrow=classic;html=1;rounded=0;exitX=0.5;exitY=1;exitDx=0;exitDy=0;entryX=1;entryY=0.5;entryDx=0;entryDy=0;" parent="WIyWlLk6GJQsqaUBKTNV-1" source="_pQ_e1QaEOG_pFHMruiR-19" target="_pQ_e1QaEOG_pFHMruiR-13" edge="1">
          <mxGeometry width="50" height="50" relative="1" as="geometry">
            <mxPoint x="420" y="290" as="sourcePoint" />
            <mxPoint x="470" y="240" as="targetPoint" />
            <Array as="points">
              <mxPoint x="620" y="210" />
            </Array>
          </mxGeometry>
        </mxCell>
        <mxCell id="mwSsWJYTHsI-j-IHyEZh-10" value="Yes" style="text;html=1;align=center;verticalAlign=middle;resizable=0;points=[];autosize=1;strokeColor=none;fillColor=none;" parent="WIyWlLk6GJQsqaUBKTNV-1" vertex="1">
          <mxGeometry x="385" y="280" width="30" height="20" as="geometry" />
        </mxCell>
        <mxCell id="mwSsWJYTHsI-j-IHyEZh-11" value="" style="endArrow=classic;html=1;rounded=0;entryX=0.5;entryY=0;entryDx=0;entryDy=0;exitX=0;exitY=1;exitDx=0;exitDy=0;" parent="WIyWlLk6GJQsqaUBKTNV-1" source="_pQ_e1QaEOG_pFHMruiR-13" target="_pQ_e1QaEOG_pFHMruiR-40" edge="1">
          <mxGeometry width="50" height="50" relative="1" as="geometry">
            <mxPoint x="420" y="390" as="sourcePoint" />
            <mxPoint x="470" y="340" as="targetPoint" />
            <Array as="points">
              <mxPoint x="320" y="230" />
              <mxPoint x="170" y="230" />
            </Array>
          </mxGeometry>
        </mxCell>
        <mxCell id="mwSsWJYTHsI-j-IHyEZh-17" value="No" style="edgeLabel;html=1;align=center;verticalAlign=middle;resizable=0;points=[];" parent="mwSsWJYTHsI-j-IHyEZh-11" vertex="1" connectable="0">
          <mxGeometry x="-0.7805" y="1" relative="1" as="geometry">
            <mxPoint as="offset" />
          </mxGeometry>
        </mxCell>
        <mxCell id="mwSsWJYTHsI-j-IHyEZh-13" value="" style="endArrow=classic;html=1;rounded=0;exitX=0;exitY=0.5;exitDx=0;exitDy=0;entryX=0.817;entryY=0.011;entryDx=0;entryDy=0;entryPerimeter=0;" parent="WIyWlLk6GJQsqaUBKTNV-1" source="mwSsWJYTHsI-j-IHyEZh-3" target="_pQ_e1QaEOG_pFHMruiR-40" edge="1">
          <mxGeometry width="50" height="50" relative="1" as="geometry">
            <mxPoint x="420" y="740" as="sourcePoint" />
            <mxPoint x="470" y="690" as="targetPoint" />
            <Array as="points">
              <mxPoint x="220" y="510" />
            </Array>
          </mxGeometry>
        </mxCell>
        <mxCell id="mwSsWJYTHsI-j-IHyEZh-19" value="No" style="edgeLabel;html=1;align=center;verticalAlign=middle;resizable=0;points=[];" parent="mwSsWJYTHsI-j-IHyEZh-13" vertex="1" connectable="0">
          <mxGeometry x="-0.5474" y="-1" relative="1" as="geometry">
            <mxPoint as="offset" />
          </mxGeometry>
        </mxCell>
        <mxCell id="mwSsWJYTHsI-j-IHyEZh-15" value="" style="endArrow=classic;html=1;rounded=0;exitX=0;exitY=0.5;exitDx=0;exitDy=0;entryX=0.25;entryY=0;entryDx=0;entryDy=0;" parent="WIyWlLk6GJQsqaUBKTNV-1" source="WIyWlLk6GJQsqaUBKTNV-6" target="_pQ_e1QaEOG_pFHMruiR-40" edge="1">
          <mxGeometry width="50" height="50" relative="1" as="geometry">
            <mxPoint x="420" y="640" as="sourcePoint" />
            <mxPoint x="470" y="590" as="targetPoint" />
            <Array as="points">
              <mxPoint x="130" y="380" />
            </Array>
          </mxGeometry>
        </mxCell>
        <mxCell id="mwSsWJYTHsI-j-IHyEZh-18" value="No" style="edgeLabel;html=1;align=center;verticalAlign=middle;resizable=0;points=[];" parent="mwSsWJYTHsI-j-IHyEZh-15" vertex="1" connectable="0">
          <mxGeometry x="-0.8388" y="-1" relative="1" as="geometry">
            <mxPoint as="offset" />
          </mxGeometry>
        </mxCell>
        <mxCell id="mwSsWJYTHsI-j-IHyEZh-22" value="Yes" style="text;html=1;align=center;verticalAlign=middle;resizable=0;points=[];autosize=1;strokeColor=none;fillColor=none;" parent="WIyWlLk6GJQsqaUBKTNV-1" vertex="1">
          <mxGeometry x="385" y="680" width="30" height="20" as="geometry" />
        </mxCell>
      </root>
    </mxGraphModel>
  </diagram>
  <diagram id="TbTuktDpPzWPJ1on0Ahq" name="撤回注销或被驳回">
    <mxGraphModel dx="782" dy="513" grid="1" gridSize="10" guides="1" tooltips="1" connect="1" arrows="1" fold="1" page="1" pageScale="1" pageWidth="827" pageHeight="1169" math="0" shadow="0">
      <root>
        <mxCell id="xnfBkbnaAbSrt4galfbC-0" />
        <mxCell id="xnfBkbnaAbSrt4galfbC-1" parent="xnfBkbnaAbSrt4galfbC-0" />
        <mxCell id="ZQ5sLWQPbgrIGB6cAGuS-0" value="" style="rounded=0;html=1;jettySize=auto;orthogonalLoop=1;fontSize=11;endArrow=block;endFill=0;endSize=8;strokeWidth=1;shadow=0;labelBackgroundColor=none;edgeStyle=orthogonalEdgeStyle;exitX=0.5;exitY=1;exitDx=0;exitDy=0;" parent="xnfBkbnaAbSrt4galfbC-1" source="ZQ5sLWQPbgrIGB6cAGuS-4" target="ZQ5sLWQPbgrIGB6cAGuS-2" edge="1">
          <mxGeometry relative="1" as="geometry">
            <mxPoint x="430" y="960" as="sourcePoint" />
          </mxGeometry>
        </mxCell>
        <mxCell id="ZQ5sLWQPbgrIGB6cAGuS-1" value="Yes" style="rounded=0;html=1;jettySize=auto;orthogonalLoop=1;fontSize=11;endArrow=block;endFill=0;endSize=8;strokeWidth=1;shadow=0;labelBackgroundColor=none;edgeStyle=orthogonalEdgeStyle;entryX=0.5;entryY=0;entryDx=0;entryDy=0;" parent="xnfBkbnaAbSrt4galfbC-1" source="ZQ5sLWQPbgrIGB6cAGuS-2" target="ZQ5sLWQPbgrIGB6cAGuS-16" edge="1">
          <mxGeometry y="20" relative="1" as="geometry">
            <mxPoint as="offset" />
            <mxPoint x="430" y="1180" as="targetPoint" />
            <Array as="points" />
          </mxGeometry>
        </mxCell>
        <mxCell id="ZQ5sLWQPbgrIGB6cAGuS-2" value="用户把该设备添加到了微信？" style="rhombus;whiteSpace=wrap;html=1;shadow=0;fontFamily=Helvetica;fontSize=12;align=center;strokeWidth=1;spacing=6;spacingTop=-4;" parent="xnfBkbnaAbSrt4galfbC-1" vertex="1">
          <mxGeometry x="360" y="1060" width="140" height="80" as="geometry" />
        </mxCell>
        <mxCell id="ZQ5sLWQPbgrIGB6cAGuS-4" value="用户申请注销后主动撤回或者被驳回" style="rounded=1;whiteSpace=wrap;html=1;fontSize=12;glass=0;strokeWidth=1;shadow=0;" parent="xnfBkbnaAbSrt4galfbC-1" vertex="1">
          <mxGeometry x="360" y="920" width="140" height="60" as="geometry" />
        </mxCell>
        <mxCell id="ZQ5sLWQPbgrIGB6cAGuS-6" value="" style="edgeStyle=orthogonalEdgeStyle;rounded=0;orthogonalLoop=1;jettySize=auto;html=1;exitX=0.5;exitY=1;exitDx=0;exitDy=0;entryX=0.5;entryY=0;entryDx=0;entryDy=0;" parent="xnfBkbnaAbSrt4galfbC-1" source="ZQ5sLWQPbgrIGB6cAGuS-15" target="ZQ5sLWQPbgrIGB6cAGuS-12" edge="1">
          <mxGeometry relative="1" as="geometry">
            <mxPoint x="435.0000000000002" y="1490" as="sourcePoint" />
            <mxPoint x="430" y="1568" as="targetPoint" />
            <Array as="points" />
          </mxGeometry>
        </mxCell>
        <mxCell id="ZQ5sLWQPbgrIGB6cAGuS-9" value="注册到微信的设备是否&lt;span&gt;为可用状态？&lt;/span&gt;" style="rhombus;whiteSpace=wrap;html=1;" parent="xnfBkbnaAbSrt4galfbC-1" vertex="1">
          <mxGeometry x="310" y="1330" width="240" height="60" as="geometry" />
        </mxCell>
        <mxCell id="ZQ5sLWQPbgrIGB6cAGuS-10" value="" style="endArrow=classic;html=1;rounded=0;entryX=1;entryY=0.5;entryDx=0;entryDy=0;exitX=0;exitY=0.5;exitDx=0;exitDy=0;" parent="xnfBkbnaAbSrt4galfbC-1" edge="1">
          <mxGeometry width="50" height="50" relative="1" as="geometry">
            <mxPoint x="355" y="1610" as="sourcePoint" />
            <mxPoint x="290" y="1610" as="targetPoint" />
          </mxGeometry>
        </mxCell>
        <mxCell id="ZQ5sLWQPbgrIGB6cAGuS-11" value="end" style="rounded=1;whiteSpace=wrap;html=1;" parent="xnfBkbnaAbSrt4galfbC-1" vertex="1">
          <mxGeometry x="130" y="1580" width="160" height="60" as="geometry" />
        </mxCell>
        <mxCell id="ZQ5sLWQPbgrIGB6cAGuS-12" value="&lt;span&gt;用户设备关联关系设置为可用状态&lt;/span&gt;" style="rounded=1;whiteSpace=wrap;html=1;" parent="xnfBkbnaAbSrt4galfbC-1" vertex="1">
          <mxGeometry x="345" y="1580" width="170" height="60" as="geometry" />
        </mxCell>
        <mxCell id="ZQ5sLWQPbgrIGB6cAGuS-15" value="&lt;span&gt;把用户设备关联关系同步到微信侧&lt;/span&gt;" style="rounded=1;whiteSpace=wrap;html=1;" parent="xnfBkbnaAbSrt4galfbC-1" vertex="1">
          <mxGeometry x="330" y="1450" width="200" height="60" as="geometry" />
        </mxCell>
        <mxCell id="ZQ5sLWQPbgrIGB6cAGuS-16" value="用户可以操作设备卡片？" style="rhombus;whiteSpace=wrap;html=1;" parent="xnfBkbnaAbSrt4galfbC-1" vertex="1">
          <mxGeometry x="310" y="1200" width="240" height="60" as="geometry" />
        </mxCell>
        <mxCell id="ZQ5sLWQPbgrIGB6cAGuS-18" value="" style="endArrow=classic;html=1;rounded=0;exitX=0.5;exitY=1;exitDx=0;exitDy=0;entryX=0.5;entryY=0;entryDx=0;entryDy=0;" parent="xnfBkbnaAbSrt4galfbC-1" source="ZQ5sLWQPbgrIGB6cAGuS-9" target="ZQ5sLWQPbgrIGB6cAGuS-15" edge="1">
          <mxGeometry width="50" height="50" relative="1" as="geometry">
            <mxPoint x="460" y="1410" as="sourcePoint" />
            <mxPoint x="510" y="1360" as="targetPoint" />
          </mxGeometry>
        </mxCell>
        <mxCell id="ZQ5sLWQPbgrIGB6cAGuS-22" value="" style="endArrow=classic;html=1;rounded=0;exitX=0;exitY=0.5;exitDx=0;exitDy=0;entryX=0.817;entryY=0.011;entryDx=0;entryDy=0;entryPerimeter=0;" parent="xnfBkbnaAbSrt4galfbC-1" source="ZQ5sLWQPbgrIGB6cAGuS-16" target="ZQ5sLWQPbgrIGB6cAGuS-11" edge="1">
          <mxGeometry width="50" height="50" relative="1" as="geometry">
            <mxPoint x="460" y="1460" as="sourcePoint" />
            <mxPoint x="510" y="1410" as="targetPoint" />
            <Array as="points">
              <mxPoint x="260" y="1230" />
            </Array>
          </mxGeometry>
        </mxCell>
        <mxCell id="ZQ5sLWQPbgrIGB6cAGuS-23" value="Yes" style="edgeLabel;html=1;align=center;verticalAlign=middle;resizable=0;points=[];" parent="ZQ5sLWQPbgrIGB6cAGuS-22" vertex="1" connectable="0">
          <mxGeometry x="-0.5474" y="-1" relative="1" as="geometry">
            <mxPoint as="offset" />
          </mxGeometry>
        </mxCell>
        <mxCell id="ZQ5sLWQPbgrIGB6cAGuS-24" value="" style="endArrow=classic;html=1;rounded=0;exitX=0;exitY=0.5;exitDx=0;exitDy=0;entryX=0.25;entryY=0;entryDx=0;entryDy=0;" parent="xnfBkbnaAbSrt4galfbC-1" source="ZQ5sLWQPbgrIGB6cAGuS-2" target="ZQ5sLWQPbgrIGB6cAGuS-11" edge="1">
          <mxGeometry width="50" height="50" relative="1" as="geometry">
            <mxPoint x="460" y="1360" as="sourcePoint" />
            <mxPoint x="510" y="1310" as="targetPoint" />
            <Array as="points">
              <mxPoint x="170" y="1100" />
            </Array>
          </mxGeometry>
        </mxCell>
        <mxCell id="ZQ5sLWQPbgrIGB6cAGuS-25" value="No" style="edgeLabel;html=1;align=center;verticalAlign=middle;resizable=0;points=[];" parent="ZQ5sLWQPbgrIGB6cAGuS-24" vertex="1" connectable="0">
          <mxGeometry x="-0.8388" y="-1" relative="1" as="geometry">
            <mxPoint as="offset" />
          </mxGeometry>
        </mxCell>
        <mxCell id="ZQ5sLWQPbgrIGB6cAGuS-26" value="No" style="text;html=1;align=center;verticalAlign=middle;resizable=0;points=[];autosize=1;strokeColor=none;fillColor=none;" parent="xnfBkbnaAbSrt4galfbC-1" vertex="1">
          <mxGeometry x="425" y="1400" width="30" height="20" as="geometry" />
        </mxCell>
        <mxCell id="ZQ5sLWQPbgrIGB6cAGuS-27" value="" style="endArrow=classic;html=1;rounded=0;exitX=0;exitY=0.5;exitDx=0;exitDy=0;entryX=0.5;entryY=0;entryDx=0;entryDy=0;" parent="xnfBkbnaAbSrt4galfbC-1" source="ZQ5sLWQPbgrIGB6cAGuS-9" target="ZQ5sLWQPbgrIGB6cAGuS-11" edge="1">
          <mxGeometry width="50" height="50" relative="1" as="geometry">
            <mxPoint x="380" y="1430" as="sourcePoint" />
            <mxPoint x="430" y="1380" as="targetPoint" />
            <Array as="points">
              <mxPoint x="210" y="1360" />
            </Array>
          </mxGeometry>
        </mxCell>
        <mxCell id="ZQ5sLWQPbgrIGB6cAGuS-28" value="Yes" style="edgeLabel;html=1;align=center;verticalAlign=middle;resizable=0;points=[];" parent="ZQ5sLWQPbgrIGB6cAGuS-27" vertex="1" connectable="0">
          <mxGeometry x="0.2479" y="1" relative="1" as="geometry">
            <mxPoint as="offset" />
          </mxGeometry>
        </mxCell>
        <mxCell id="ZQ5sLWQPbgrIGB6cAGuS-29" value="No" style="text;html=1;align=center;verticalAlign=middle;resizable=0;points=[];autosize=1;strokeColor=none;fillColor=none;" parent="xnfBkbnaAbSrt4galfbC-1" vertex="1">
          <mxGeometry x="399" y="1280" width="30" height="20" as="geometry" />
        </mxCell>
        <mxCell id="ZQ5sLWQPbgrIGB6cAGuS-30" value="" style="endArrow=classic;html=1;rounded=0;exitX=0.5;exitY=1;exitDx=0;exitDy=0;entryX=0.5;entryY=0;entryDx=0;entryDy=0;" parent="xnfBkbnaAbSrt4galfbC-1" source="ZQ5sLWQPbgrIGB6cAGuS-16" target="ZQ5sLWQPbgrIGB6cAGuS-9" edge="1">
          <mxGeometry width="50" height="50" relative="1" as="geometry">
            <mxPoint x="380" y="1290" as="sourcePoint" />
            <mxPoint x="430" y="1240" as="targetPoint" />
          </mxGeometry>
        </mxCell>
      </root>
    </mxGraphModel>
  </diagram>
  <diagram id="HTFeCkir3lPyPk4nvGHC" name="设备状态变更">
    <mxGraphModel dx="1609" dy="513" grid="1" gridSize="10" guides="1" tooltips="1" connect="1" arrows="1" fold="1" page="1" pageScale="1" pageWidth="827" pageHeight="1169" math="0" shadow="0">
      <root>
        <mxCell id="0" />
        <mxCell id="1" parent="0" />
        <mxCell id="9eau8agvKqASeif3AoJr-1" value="设备解绑事件（单个）" style="rounded=1;whiteSpace=wrap;html=1;" parent="1" vertex="1">
          <mxGeometry x="400" y="200" width="160" height="40" as="geometry" />
        </mxCell>
        <mxCell id="9eau8agvKqASeif3AoJr-2" value="设备家庭信息修改（单个）" style="rounded=1;whiteSpace=wrap;html=1;" parent="1" vertex="1">
          <mxGeometry x="640" y="200" width="160" height="40" as="geometry" />
        </mxCell>
        <mxCell id="9eau8agvKqASeif3AoJr-3" value="设备解绑事件（批量）" style="rounded=1;whiteSpace=wrap;html=1;" parent="1" vertex="1">
          <mxGeometry x="-82.5" y="200" width="160" height="40" as="geometry" />
        </mxCell>
        <mxCell id="9eau8agvKqASeif3AoJr-4" value="设备家庭信息修改（批量）" style="rounded=1;whiteSpace=wrap;html=1;" parent="1" vertex="1">
          <mxGeometry x="160" y="200" width="160" height="40" as="geometry" />
        </mxCell>
        <mxCell id="9eau8agvKqASeif3AoJr-5" value="" style="edgeStyle=orthogonalEdgeStyle;rounded=0;orthogonalLoop=1;jettySize=auto;html=1;entryX=0.25;entryY=0;entryDx=0;entryDy=0;" parent="1" source="9eau8agvKqASeif3AoJr-7" target="9eau8agvKqASeif3AoJr-29" edge="1">
          <mxGeometry relative="1" as="geometry">
            <mxPoint x="240" y="930" as="targetPoint" />
            <Array as="points">
              <mxPoint x="240" y="810" />
              <mxPoint x="450" y="810" />
            </Array>
          </mxGeometry>
        </mxCell>
        <mxCell id="9eau8agvKqASeif3AoJr-6" value="" style="edgeStyle=orthogonalEdgeStyle;rounded=0;orthogonalLoop=1;jettySize=auto;html=1;startArrow=none;" parent="1" source="9eau8agvKqASeif3AoJr-16" target="9eau8agvKqASeif3AoJr-13" edge="1">
          <mxGeometry relative="1" as="geometry">
            <Array as="points">
              <mxPoint x="110" y="440" />
            </Array>
          </mxGeometry>
        </mxCell>
        <mxCell id="9eau8agvKqASeif3AoJr-7" value="设备是否被注册到微信设备卡片" style="rhombus;whiteSpace=wrap;html=1;" parent="1" vertex="1">
          <mxGeometry x="135" y="400" width="210" height="80" as="geometry" />
        </mxCell>
        <mxCell id="9eau8agvKqASeif3AoJr-8" value="" style="endArrow=classic;html=1;rounded=0;exitX=0.5;exitY=1;exitDx=0;exitDy=0;entryX=0.5;entryY=0;entryDx=0;entryDy=0;" parent="1" source="9eau8agvKqASeif3AoJr-3" edge="1" target="9eau8agvKqASeif3AoJr-16">
          <mxGeometry width="50" height="50" relative="1" as="geometry">
            <mxPoint x="387.5" y="240" as="sourcePoint" />
            <mxPoint x="-2" y="390" as="targetPoint" />
          </mxGeometry>
        </mxCell>
        <mxCell id="9eau8agvKqASeif3AoJr-9" value="" style="endArrow=classic;html=1;rounded=0;exitX=0.5;exitY=1;exitDx=0;exitDy=0;" parent="1" source="9eau8agvKqASeif3AoJr-4" target="9eau8agvKqASeif3AoJr-7" edge="1">
          <mxGeometry width="50" height="50" relative="1" as="geometry">
            <mxPoint x="380" y="240" as="sourcePoint" />
            <mxPoint x="430" y="190" as="targetPoint" />
          </mxGeometry>
        </mxCell>
        <mxCell id="9eau8agvKqASeif3AoJr-10" value="" style="endArrow=classic;html=1;rounded=0;exitX=0.5;exitY=1;exitDx=0;exitDy=0;entryX=0.5;entryY=0;entryDx=0;entryDy=0;" parent="1" source="9eau8agvKqASeif3AoJr-1" target="9eau8agvKqASeif3AoJr-14" edge="1">
          <mxGeometry width="50" height="50" relative="1" as="geometry">
            <mxPoint x="380" y="240" as="sourcePoint" />
            <mxPoint x="430" y="190" as="targetPoint" />
          </mxGeometry>
        </mxCell>
        <mxCell id="9eau8agvKqASeif3AoJr-11" value="" style="endArrow=classic;html=1;rounded=0;exitX=0.5;exitY=1;exitDx=0;exitDy=0;entryX=0.5;entryY=0;entryDx=0;entryDy=0;" parent="1" source="9eau8agvKqASeif3AoJr-2" target="9eau8agvKqASeif3AoJr-15" edge="1">
          <mxGeometry width="50" height="50" relative="1" as="geometry">
            <mxPoint x="380" y="240" as="sourcePoint" />
            <mxPoint x="430" y="190" as="targetPoint" />
          </mxGeometry>
        </mxCell>
        <mxCell id="9eau8agvKqASeif3AoJr-12" value="Yes" style="text;html=1;align=center;verticalAlign=middle;resizable=0;points=[];autosize=1;strokeColor=none;fillColor=none;" parent="1" vertex="1">
          <mxGeometry x="245" y="720" width="30" height="20" as="geometry" />
        </mxCell>
        <mxCell id="9eau8agvKqASeif3AoJr-13" value="end" style="whiteSpace=wrap;html=1;" parent="1" vertex="1">
          <mxGeometry x="50" y="640" width="120" height="60" as="geometry" />
        </mxCell>
        <mxCell id="9eau8agvKqASeif3AoJr-14" value="设备是否被注册到微信设备卡片" style="rhombus;whiteSpace=wrap;html=1;" parent="1" vertex="1">
          <mxGeometry x="387.5" y="400" width="185" height="80" as="geometry" />
        </mxCell>
        <mxCell id="9eau8agvKqASeif3AoJr-15" value="设备是否被注册到微信设备卡片" style="rhombus;whiteSpace=wrap;html=1;" parent="1" vertex="1">
          <mxGeometry x="630" y="400" width="180" height="80" as="geometry" />
        </mxCell>
        <mxCell id="9eau8agvKqASeif3AoJr-16" value="设备是否被注册到微信设备卡片" style="rhombus;whiteSpace=wrap;html=1;" parent="1" vertex="1">
          <mxGeometry x="-100" y="400" width="195" height="80" as="geometry" />
        </mxCell>
        <mxCell id="9eau8agvKqASeif3AoJr-17" value="No" style="text;html=1;align=center;verticalAlign=middle;resizable=0;points=[];autosize=1;strokeColor=none;fillColor=none;" parent="1" vertex="1">
          <mxGeometry x="75" y="570" width="30" height="20" as="geometry" />
        </mxCell>
        <mxCell id="9eau8agvKqASeif3AoJr-18" value="" style="edgeStyle=orthogonalEdgeStyle;rounded=0;orthogonalLoop=1;jettySize=auto;html=1;startArrow=none;" parent="1" target="9eau8agvKqASeif3AoJr-19" edge="1">
          <mxGeometry relative="1" as="geometry">
            <mxPoint x="344.99999999999955" y="440" as="sourcePoint" />
            <Array as="points">
              <mxPoint x="350" y="440" />
            </Array>
          </mxGeometry>
        </mxCell>
        <mxCell id="9eau8agvKqASeif3AoJr-19" value="end" style="whiteSpace=wrap;html=1;" parent="1" vertex="1">
          <mxGeometry x="290" y="640" width="120" height="60" as="geometry" />
        </mxCell>
        <mxCell id="9eau8agvKqASeif3AoJr-20" value="" style="edgeStyle=orthogonalEdgeStyle;rounded=0;orthogonalLoop=1;jettySize=auto;html=1;startArrow=none;" parent="1" target="9eau8agvKqASeif3AoJr-21" edge="1">
          <mxGeometry relative="1" as="geometry">
            <mxPoint x="574.9999999999995" y="440" as="sourcePoint" />
            <Array as="points">
              <mxPoint x="580" y="440" />
            </Array>
          </mxGeometry>
        </mxCell>
        <mxCell id="9eau8agvKqASeif3AoJr-21" value="end" style="whiteSpace=wrap;html=1;" parent="1" vertex="1">
          <mxGeometry x="520" y="640" width="120" height="60" as="geometry" />
        </mxCell>
        <mxCell id="9eau8agvKqASeif3AoJr-22" value="No" style="text;html=1;align=center;verticalAlign=middle;resizable=0;points=[];autosize=1;strokeColor=none;fillColor=none;" parent="1" vertex="1">
          <mxGeometry x="545" y="570" width="30" height="20" as="geometry" />
        </mxCell>
        <mxCell id="9eau8agvKqASeif3AoJr-23" value="end" style="whiteSpace=wrap;html=1;" parent="1" vertex="1">
          <mxGeometry x="755" y="640" width="120" height="60" as="geometry" />
        </mxCell>
        <mxCell id="9eau8agvKqASeif3AoJr-24" value="No" style="text;html=1;align=center;verticalAlign=middle;resizable=0;points=[];autosize=1;strokeColor=none;fillColor=none;" parent="1" vertex="1">
          <mxGeometry x="785" y="570" width="30" height="20" as="geometry" />
        </mxCell>
        <mxCell id="9eau8agvKqASeif3AoJr-25" value="" style="edgeStyle=orthogonalEdgeStyle;rounded=0;orthogonalLoop=1;jettySize=auto;html=1;entryX=0;entryY=0.5;entryDx=0;entryDy=0;" parent="1" target="9eau8agvKqASeif3AoJr-29" edge="1">
          <mxGeometry relative="1" as="geometry">
            <mxPoint x="-1" y="480" as="sourcePoint" />
            <mxPoint x="-1" y="930" as="targetPoint" />
            <Array as="points">
              <mxPoint x="-1" y="900" />
            </Array>
          </mxGeometry>
        </mxCell>
        <mxCell id="9eau8agvKqASeif3AoJr-26" value="Yes" style="text;html=1;align=center;verticalAlign=middle;resizable=0;points=[];autosize=1;strokeColor=none;fillColor=none;" parent="1" vertex="1">
          <mxGeometry y="720" width="30" height="20" as="geometry" />
        </mxCell>
        <mxCell id="9eau8agvKqASeif3AoJr-27" value="" style="edgeStyle=orthogonalEdgeStyle;rounded=0;orthogonalLoop=1;jettySize=auto;html=1;" parent="1" target="9eau8agvKqASeif3AoJr-29" edge="1">
          <mxGeometry relative="1" as="geometry">
            <mxPoint x="480" y="480" as="sourcePoint" />
          </mxGeometry>
        </mxCell>
        <mxCell id="9eau8agvKqASeif3AoJr-28" value="" style="edgeStyle=orthogonalEdgeStyle;rounded=0;orthogonalLoop=1;jettySize=auto;html=1;" parent="1" source="9eau8agvKqASeif3AoJr-29" target="9eau8agvKqASeif3AoJr-41" edge="1">
          <mxGeometry relative="1" as="geometry" />
        </mxCell>
        <mxCell id="9eau8agvKqASeif3AoJr-29" value="查询用户添加设备卡片信息" style="whiteSpace=wrap;html=1;" parent="1" vertex="1">
          <mxGeometry x="420" y="870" width="120" height="60" as="geometry" />
        </mxCell>
        <mxCell id="9eau8agvKqASeif3AoJr-30" value="Yes" style="text;html=1;align=center;verticalAlign=middle;resizable=0;points=[];autosize=1;strokeColor=none;fillColor=none;" parent="1" vertex="1">
          <mxGeometry x="485" y="720" width="30" height="20" as="geometry" />
        </mxCell>
        <mxCell id="9eau8agvKqASeif3AoJr-31" value="" style="edgeStyle=orthogonalEdgeStyle;rounded=0;orthogonalLoop=1;jettySize=auto;html=1;entryX=1;entryY=0.5;entryDx=0;entryDy=0;" parent="1" target="9eau8agvKqASeif3AoJr-29" edge="1">
          <mxGeometry relative="1" as="geometry">
            <mxPoint x="720" y="480" as="sourcePoint" />
            <mxPoint x="720" y="910" as="targetPoint" />
            <Array as="points">
              <mxPoint x="720" y="900" />
            </Array>
          </mxGeometry>
        </mxCell>
        <mxCell id="9eau8agvKqASeif3AoJr-32" value="Yes" style="text;html=1;align=center;verticalAlign=middle;resizable=0;points=[];autosize=1;strokeColor=none;fillColor=none;" parent="1" vertex="1">
          <mxGeometry x="725" y="720" width="30" height="20" as="geometry" />
        </mxCell>
        <mxCell id="9eau8agvKqASeif3AoJr-33" value="" style="edgeStyle=orthogonalEdgeStyle;rounded=0;orthogonalLoop=1;jettySize=auto;html=1;exitX=0.5;exitY=1;exitDx=0;exitDy=0;" parent="1" source="9eau8agvKqASeif3AoJr-34" target="9eau8agvKqASeif3AoJr-37" edge="1">
          <mxGeometry relative="1" as="geometry">
            <mxPoint x="480" y="1420" as="sourcePoint" />
          </mxGeometry>
        </mxCell>
        <mxCell id="9eau8agvKqASeif3AoJr-34" value="把状态为可用状态的用户设备关联关系同步到微信侧" style="whiteSpace=wrap;html=1;" parent="1" vertex="1">
          <mxGeometry x="400" y="1330" width="160" height="80" as="geometry" />
        </mxCell>
        <mxCell id="9eau8agvKqASeif3AoJr-35" value="" style="edgeStyle=orthogonalEdgeStyle;rounded=0;orthogonalLoop=1;jettySize=auto;html=1;startArrow=none;" parent="1" edge="1">
          <mxGeometry relative="1" as="geometry">
            <mxPoint x="809.9999999999995" y="440" as="sourcePoint" />
            <Array as="points">
              <mxPoint x="815" y="440" />
            </Array>
            <mxPoint x="815" y="640" as="targetPoint" />
          </mxGeometry>
        </mxCell>
        <mxCell id="9eau8agvKqASeif3AoJr-36" value="No" style="text;html=1;align=center;verticalAlign=middle;resizable=0;points=[];autosize=1;strokeColor=none;fillColor=none;" parent="1" vertex="1">
          <mxGeometry x="85" y="580" width="30" height="20" as="geometry" />
        </mxCell>
        <mxCell id="9eau8agvKqASeif3AoJr-37" value="把本地用户设备关联关系置为不可用状态" style="whiteSpace=wrap;html=1;" parent="1" vertex="1">
          <mxGeometry x="400" y="1490" width="160" height="80" as="geometry" />
        </mxCell>
        <mxCell id="9eau8agvKqASeif3AoJr-38" value="" style="edgeStyle=orthogonalEdgeStyle;rounded=0;orthogonalLoop=1;jettySize=auto;html=1;" parent="1" source="9eau8agvKqASeif3AoJr-41" target="9eau8agvKqASeif3AoJr-43" edge="1">
          <mxGeometry relative="1" as="geometry" />
        </mxCell>
        <mxCell id="9eau8agvKqASeif3AoJr-39" value="No" style="edgeLabel;html=1;align=center;verticalAlign=middle;resizable=0;points=[];" parent="9eau8agvKqASeif3AoJr-38" vertex="1" connectable="0">
          <mxGeometry x="0.2356" y="-2" relative="1" as="geometry">
            <mxPoint as="offset" />
          </mxGeometry>
        </mxCell>
        <mxCell id="9eau8agvKqASeif3AoJr-40" value="" style="edgeStyle=orthogonalEdgeStyle;rounded=0;orthogonalLoop=1;jettySize=auto;html=1;" parent="1" source="9eau8agvKqASeif3AoJr-41" target="9eau8agvKqASeif3AoJr-45" edge="1">
          <mxGeometry relative="1" as="geometry" />
        </mxCell>
        <mxCell id="9eau8agvKqASeif3AoJr-41" value="是否存在用户添加设备到设备微信卡片？" style="rhombus;whiteSpace=wrap;html=1;" parent="1" vertex="1">
          <mxGeometry x="360" y="1000" width="240" height="80" as="geometry" />
        </mxCell>
        <mxCell id="9eau8agvKqASeif3AoJr-42" value="Yes" style="text;html=1;align=center;verticalAlign=middle;resizable=0;points=[];autosize=1;strokeColor=none;fillColor=none;" parent="1" vertex="1">
          <mxGeometry x="485" y="1100" width="30" height="20" as="geometry" />
        </mxCell>
        <mxCell id="9eau8agvKqASeif3AoJr-43" value="end" style="whiteSpace=wrap;html=1;" parent="1" vertex="1">
          <mxGeometry x="135" y="1500" width="120" height="60" as="geometry" />
        </mxCell>
        <mxCell id="9eau8agvKqASeif3AoJr-44" value="" style="endArrow=classic;html=1;rounded=0;entryX=1;entryY=0.5;entryDx=0;entryDy=0;exitX=0;exitY=0.5;exitDx=0;exitDy=0;" parent="1" source="9eau8agvKqASeif3AoJr-37" target="9eau8agvKqASeif3AoJr-43" edge="1">
          <mxGeometry width="50" height="50" relative="1" as="geometry">
            <mxPoint x="440" y="1560" as="sourcePoint" />
            <mxPoint x="490" y="1510" as="targetPoint" />
          </mxGeometry>
        </mxCell>
        <mxCell id="9eau8agvKqASeif3AoJr-45" value="用户添加设备卡片状态是可用？" style="rhombus;whiteSpace=wrap;html=1;" parent="1" vertex="1">
          <mxGeometry x="360" y="1160" width="240" height="80" as="geometry" />
        </mxCell>
        <mxCell id="9eau8agvKqASeif3AoJr-46" value="" style="endArrow=classic;html=1;rounded=0;" parent="1" target="9eau8agvKqASeif3AoJr-34" edge="1">
          <mxGeometry width="50" height="50" relative="1" as="geometry">
            <mxPoint x="480" y="1240" as="sourcePoint" />
            <mxPoint x="510" y="1210" as="targetPoint" />
          </mxGeometry>
        </mxCell>
        <mxCell id="9eau8agvKqASeif3AoJr-47" value="" style="endArrow=classic;html=1;rounded=0;exitX=1;exitY=0.5;exitDx=0;exitDy=0;entryX=1;entryY=0.5;entryDx=0;entryDy=0;" parent="1" source="9eau8agvKqASeif3AoJr-45" target="9eau8agvKqASeif3AoJr-41" edge="1">
          <mxGeometry width="50" height="50" relative="1" as="geometry">
            <mxPoint x="460" y="1260" as="sourcePoint" />
            <mxPoint x="670" y="1040" as="targetPoint" />
            <Array as="points">
              <mxPoint x="670" y="1200" />
              <mxPoint x="670" y="1040" />
            </Array>
          </mxGeometry>
        </mxCell>
        <mxCell id="9eau8agvKqASeif3AoJr-48" value="No" style="edgeLabel;html=1;align=center;verticalAlign=middle;resizable=0;points=[];" parent="9eau8agvKqASeif3AoJr-47" vertex="1" connectable="0">
          <mxGeometry x="-0.0691" y="1" relative="1" as="geometry">
            <mxPoint as="offset" />
          </mxGeometry>
        </mxCell>
        <mxCell id="9eau8agvKqASeif3AoJr-49" value="Yes" style="text;html=1;align=center;verticalAlign=middle;resizable=0;points=[];autosize=1;strokeColor=none;fillColor=none;" parent="1" vertex="1">
          <mxGeometry x="475" y="1270" width="30" height="20" as="geometry" />
        </mxCell>
      </root>
    </mxGraphModel>
  </diagram>
  <diagram id="5_1ja_2OBQyPq9Wt_PJu" name="设备状态变更新">
    <mxGraphModel dx="1609" dy="513" grid="1" gridSize="10" guides="1" tooltips="1" connect="1" arrows="1" fold="1" page="1" pageScale="1" pageWidth="827" pageHeight="1169" math="0" shadow="0">
      <root>
        <mxCell id="0" />
        <mxCell id="1" parent="0" />
        <mxCell id="o43FSoy_OmyfSq_FZUJw-110" value="设备解绑事件（单个）" style="rounded=1;whiteSpace=wrap;html=1;" parent="1" vertex="1">
          <mxGeometry x="410" y="210" width="160" height="40" as="geometry" />
        </mxCell>
        <mxCell id="o43FSoy_OmyfSq_FZUJw-111" value="设备家庭信息修改（单个）" style="rounded=1;whiteSpace=wrap;html=1;" parent="1" vertex="1">
          <mxGeometry x="650" y="210" width="160" height="40" as="geometry" />
        </mxCell>
        <mxCell id="o43FSoy_OmyfSq_FZUJw-112" value="设备解绑事件（批量）" style="rounded=1;whiteSpace=wrap;html=1;" parent="1" vertex="1">
          <mxGeometry x="-62.5" y="210" width="160" height="40" as="geometry" />
        </mxCell>
        <mxCell id="o43FSoy_OmyfSq_FZUJw-113" value="设备家庭信息修改（批量）" style="rounded=1;whiteSpace=wrap;html=1;" parent="1" vertex="1">
          <mxGeometry x="170" y="210" width="160" height="40" as="geometry" />
        </mxCell>
        <mxCell id="o43FSoy_OmyfSq_FZUJw-114" value="" style="edgeStyle=orthogonalEdgeStyle;rounded=0;orthogonalLoop=1;jettySize=auto;html=1;entryX=0.25;entryY=0;entryDx=0;entryDy=0;" parent="1" source="o43FSoy_OmyfSq_FZUJw-116" target="o43FSoy_OmyfSq_FZUJw-138" edge="1">
          <mxGeometry relative="1" as="geometry">
            <mxPoint x="250" y="940" as="targetPoint" />
            <Array as="points">
              <mxPoint x="250" y="820" />
              <mxPoint x="460" y="820" />
            </Array>
          </mxGeometry>
        </mxCell>
        <mxCell id="o43FSoy_OmyfSq_FZUJw-115" value="" style="edgeStyle=orthogonalEdgeStyle;rounded=0;orthogonalLoop=1;jettySize=auto;html=1;startArrow=none;" parent="1" source="o43FSoy_OmyfSq_FZUJw-125" target="o43FSoy_OmyfSq_FZUJw-122" edge="1">
          <mxGeometry relative="1" as="geometry">
            <Array as="points">
              <mxPoint x="120" y="450" />
            </Array>
          </mxGeometry>
        </mxCell>
        <mxCell id="o43FSoy_OmyfSq_FZUJw-116" value="设备是否被注册到微信设备卡片" style="rhombus;whiteSpace=wrap;html=1;" parent="1" vertex="1">
          <mxGeometry x="145" y="410" width="210" height="80" as="geometry" />
        </mxCell>
        <mxCell id="o43FSoy_OmyfSq_FZUJw-117" value="" style="endArrow=classic;html=1;rounded=0;exitX=0.5;exitY=1;exitDx=0;exitDy=0;entryX=0.452;entryY=0;entryDx=0;entryDy=0;entryPerimeter=0;" parent="1" source="o43FSoy_OmyfSq_FZUJw-112" edge="1">
          <mxGeometry width="50" height="50" relative="1" as="geometry">
            <mxPoint x="397.5" y="250" as="sourcePoint" />
            <mxPoint x="15.640000000000327" y="410" as="targetPoint" />
          </mxGeometry>
        </mxCell>
        <mxCell id="o43FSoy_OmyfSq_FZUJw-118" value="" style="endArrow=classic;html=1;rounded=0;exitX=0.5;exitY=1;exitDx=0;exitDy=0;" parent="1" source="o43FSoy_OmyfSq_FZUJw-113" target="o43FSoy_OmyfSq_FZUJw-116" edge="1">
          <mxGeometry width="50" height="50" relative="1" as="geometry">
            <mxPoint x="390" y="250" as="sourcePoint" />
            <mxPoint x="440" y="200" as="targetPoint" />
          </mxGeometry>
        </mxCell>
        <mxCell id="o43FSoy_OmyfSq_FZUJw-119" value="" style="endArrow=classic;html=1;rounded=0;exitX=0.5;exitY=1;exitDx=0;exitDy=0;entryX=0.5;entryY=0;entryDx=0;entryDy=0;" parent="1" source="o43FSoy_OmyfSq_FZUJw-110" target="o43FSoy_OmyfSq_FZUJw-123" edge="1">
          <mxGeometry width="50" height="50" relative="1" as="geometry">
            <mxPoint x="390" y="250" as="sourcePoint" />
            <mxPoint x="440" y="200" as="targetPoint" />
          </mxGeometry>
        </mxCell>
        <mxCell id="o43FSoy_OmyfSq_FZUJw-120" value="" style="endArrow=classic;html=1;rounded=0;exitX=0.5;exitY=1;exitDx=0;exitDy=0;entryX=0.5;entryY=0;entryDx=0;entryDy=0;" parent="1" source="o43FSoy_OmyfSq_FZUJw-111" target="o43FSoy_OmyfSq_FZUJw-124" edge="1">
          <mxGeometry width="50" height="50" relative="1" as="geometry">
            <mxPoint x="390" y="250" as="sourcePoint" />
            <mxPoint x="440" y="200" as="targetPoint" />
          </mxGeometry>
        </mxCell>
        <mxCell id="o43FSoy_OmyfSq_FZUJw-121" value="Yes" style="text;html=1;align=center;verticalAlign=middle;resizable=0;points=[];autosize=1;strokeColor=none;fillColor=none;" parent="1" vertex="1">
          <mxGeometry x="255" y="730" width="30" height="20" as="geometry" />
        </mxCell>
        <mxCell id="o43FSoy_OmyfSq_FZUJw-122" value="end" style="whiteSpace=wrap;html=1;" parent="1" vertex="1">
          <mxGeometry x="60" y="650" width="120" height="60" as="geometry" />
        </mxCell>
        <mxCell id="o43FSoy_OmyfSq_FZUJw-123" value="设备是否被注册到微信设备卡片" style="rhombus;whiteSpace=wrap;html=1;" parent="1" vertex="1">
          <mxGeometry x="397.5" y="410" width="185" height="80" as="geometry" />
        </mxCell>
        <mxCell id="o43FSoy_OmyfSq_FZUJw-124" value="设备是否被注册到微信设备卡片" style="rhombus;whiteSpace=wrap;html=1;" parent="1" vertex="1">
          <mxGeometry x="640" y="410" width="180" height="80" as="geometry" />
        </mxCell>
        <mxCell id="o43FSoy_OmyfSq_FZUJw-125" value="设备是否被注册到微信设备卡片" style="rhombus;whiteSpace=wrap;html=1;" parent="1" vertex="1">
          <mxGeometry x="-80" y="410" width="195" height="80" as="geometry" />
        </mxCell>
        <mxCell id="o43FSoy_OmyfSq_FZUJw-126" value="No" style="text;html=1;align=center;verticalAlign=middle;resizable=0;points=[];autosize=1;strokeColor=none;fillColor=none;" parent="1" vertex="1">
          <mxGeometry x="85" y="580" width="30" height="20" as="geometry" />
        </mxCell>
        <mxCell id="o43FSoy_OmyfSq_FZUJw-127" value="" style="edgeStyle=orthogonalEdgeStyle;rounded=0;orthogonalLoop=1;jettySize=auto;html=1;startArrow=none;" parent="1" target="o43FSoy_OmyfSq_FZUJw-128" edge="1">
          <mxGeometry relative="1" as="geometry">
            <mxPoint x="354.99999999999955" y="450" as="sourcePoint" />
            <Array as="points">
              <mxPoint x="360" y="450" />
            </Array>
          </mxGeometry>
        </mxCell>
        <mxCell id="o43FSoy_OmyfSq_FZUJw-128" value="end" style="whiteSpace=wrap;html=1;" parent="1" vertex="1">
          <mxGeometry x="300" y="650" width="120" height="60" as="geometry" />
        </mxCell>
        <mxCell id="o43FSoy_OmyfSq_FZUJw-129" value="" style="edgeStyle=orthogonalEdgeStyle;rounded=0;orthogonalLoop=1;jettySize=auto;html=1;startArrow=none;" parent="1" target="o43FSoy_OmyfSq_FZUJw-130" edge="1">
          <mxGeometry relative="1" as="geometry">
            <mxPoint x="584.9999999999995" y="450" as="sourcePoint" />
            <Array as="points">
              <mxPoint x="590" y="450" />
            </Array>
          </mxGeometry>
        </mxCell>
        <mxCell id="o43FSoy_OmyfSq_FZUJw-130" value="end" style="whiteSpace=wrap;html=1;" parent="1" vertex="1">
          <mxGeometry x="530" y="650" width="120" height="60" as="geometry" />
        </mxCell>
        <mxCell id="o43FSoy_OmyfSq_FZUJw-131" value="No" style="text;html=1;align=center;verticalAlign=middle;resizable=0;points=[];autosize=1;strokeColor=none;fillColor=none;" parent="1" vertex="1">
          <mxGeometry x="555" y="580" width="30" height="20" as="geometry" />
        </mxCell>
        <mxCell id="o43FSoy_OmyfSq_FZUJw-132" value="end" style="whiteSpace=wrap;html=1;" parent="1" vertex="1">
          <mxGeometry x="765" y="650" width="120" height="60" as="geometry" />
        </mxCell>
        <mxCell id="o43FSoy_OmyfSq_FZUJw-133" value="No" style="text;html=1;align=center;verticalAlign=middle;resizable=0;points=[];autosize=1;strokeColor=none;fillColor=none;" parent="1" vertex="1">
          <mxGeometry x="795" y="580" width="30" height="20" as="geometry" />
        </mxCell>
        <mxCell id="o43FSoy_OmyfSq_FZUJw-134" value="" style="edgeStyle=orthogonalEdgeStyle;rounded=0;orthogonalLoop=1;jettySize=auto;html=1;entryX=0;entryY=0.5;entryDx=0;entryDy=0;" parent="1" target="o43FSoy_OmyfSq_FZUJw-138" edge="1">
          <mxGeometry relative="1" as="geometry">
            <mxPoint x="9" y="490" as="sourcePoint" />
            <mxPoint x="9" y="940" as="targetPoint" />
            <Array as="points">
              <mxPoint x="9" y="910" />
            </Array>
          </mxGeometry>
        </mxCell>
        <mxCell id="o43FSoy_OmyfSq_FZUJw-135" value="Yes" style="text;html=1;align=center;verticalAlign=middle;resizable=0;points=[];autosize=1;strokeColor=none;fillColor=none;" parent="1" vertex="1">
          <mxGeometry x="10" y="730" width="30" height="20" as="geometry" />
        </mxCell>
        <mxCell id="o43FSoy_OmyfSq_FZUJw-136" value="" style="edgeStyle=orthogonalEdgeStyle;rounded=0;orthogonalLoop=1;jettySize=auto;html=1;" parent="1" target="o43FSoy_OmyfSq_FZUJw-138" edge="1">
          <mxGeometry relative="1" as="geometry">
            <mxPoint x="490" y="490" as="sourcePoint" />
          </mxGeometry>
        </mxCell>
        <mxCell id="o43FSoy_OmyfSq_FZUJw-137" value="" style="edgeStyle=orthogonalEdgeStyle;rounded=0;orthogonalLoop=1;jettySize=auto;html=1;" parent="1" source="o43FSoy_OmyfSq_FZUJw-138" target="o43FSoy_OmyfSq_FZUJw-149" edge="1">
          <mxGeometry relative="1" as="geometry" />
        </mxCell>
        <mxCell id="o43FSoy_OmyfSq_FZUJw-138" value="查询用户添加设备卡片信息" style="whiteSpace=wrap;html=1;" parent="1" vertex="1">
          <mxGeometry x="430" y="880" width="120" height="60" as="geometry" />
        </mxCell>
        <mxCell id="o43FSoy_OmyfSq_FZUJw-139" value="Yes" style="text;html=1;align=center;verticalAlign=middle;resizable=0;points=[];autosize=1;strokeColor=none;fillColor=none;" parent="1" vertex="1">
          <mxGeometry x="495" y="730" width="30" height="20" as="geometry" />
        </mxCell>
        <mxCell id="o43FSoy_OmyfSq_FZUJw-140" value="" style="edgeStyle=orthogonalEdgeStyle;rounded=0;orthogonalLoop=1;jettySize=auto;html=1;entryX=1;entryY=0.5;entryDx=0;entryDy=0;" parent="1" target="o43FSoy_OmyfSq_FZUJw-138" edge="1">
          <mxGeometry relative="1" as="geometry">
            <mxPoint x="730" y="490" as="sourcePoint" />
            <mxPoint x="730" y="920" as="targetPoint" />
            <Array as="points">
              <mxPoint x="730" y="910" />
            </Array>
          </mxGeometry>
        </mxCell>
        <mxCell id="o43FSoy_OmyfSq_FZUJw-141" value="Yes" style="text;html=1;align=center;verticalAlign=middle;resizable=0;points=[];autosize=1;strokeColor=none;fillColor=none;" parent="1" vertex="1">
          <mxGeometry x="735" y="730" width="30" height="20" as="geometry" />
        </mxCell>
        <mxCell id="o43FSoy_OmyfSq_FZUJw-142" value="" style="edgeStyle=orthogonalEdgeStyle;rounded=0;orthogonalLoop=1;jettySize=auto;html=1;exitX=0.5;exitY=1;exitDx=0;exitDy=0;" parent="1" source="o43FSoy_OmyfSq_FZUJw-143" target="o43FSoy_OmyfSq_FZUJw-145" edge="1">
          <mxGeometry relative="1" as="geometry">
            <mxPoint x="490" y="1430" as="sourcePoint" />
          </mxGeometry>
        </mxCell>
        <mxCell id="o43FSoy_OmyfSq_FZUJw-143" value="把状态为可用状态的用户设备关联关系同步到微信侧，设置为不可用状态" style="whiteSpace=wrap;html=1;" parent="1" vertex="1">
          <mxGeometry x="410" y="1340" width="160" height="80" as="geometry" />
        </mxCell>
        <mxCell id="o43FSoy_OmyfSq_FZUJw-144" value="" style="edgeStyle=orthogonalEdgeStyle;rounded=0;orthogonalLoop=1;jettySize=auto;html=1;startArrow=none;" parent="1" edge="1">
          <mxGeometry relative="1" as="geometry">
            <mxPoint x="819.9999999999995" y="450" as="sourcePoint" />
            <Array as="points">
              <mxPoint x="825" y="450" />
            </Array>
            <mxPoint x="825" y="650" as="targetPoint" />
          </mxGeometry>
        </mxCell>
        <mxCell id="o43FSoy_OmyfSq_FZUJw-145" value="把本地用户设备关联关系置为不可用状态" style="whiteSpace=wrap;html=1;" parent="1" vertex="1">
          <mxGeometry x="410" y="1500" width="160" height="80" as="geometry" />
        </mxCell>
        <mxCell id="o43FSoy_OmyfSq_FZUJw-146" value="" style="edgeStyle=orthogonalEdgeStyle;rounded=0;orthogonalLoop=1;jettySize=auto;html=1;" parent="1" source="o43FSoy_OmyfSq_FZUJw-149" target="o43FSoy_OmyfSq_FZUJw-151" edge="1">
          <mxGeometry relative="1" as="geometry" />
        </mxCell>
        <mxCell id="o43FSoy_OmyfSq_FZUJw-147" value="No" style="edgeLabel;html=1;align=center;verticalAlign=middle;resizable=0;points=[];" parent="o43FSoy_OmyfSq_FZUJw-146" vertex="1" connectable="0">
          <mxGeometry x="0.2356" y="-2" relative="1" as="geometry">
            <mxPoint as="offset" />
          </mxGeometry>
        </mxCell>
        <mxCell id="o43FSoy_OmyfSq_FZUJw-148" value="" style="edgeStyle=orthogonalEdgeStyle;rounded=0;orthogonalLoop=1;jettySize=auto;html=1;" parent="1" source="o43FSoy_OmyfSq_FZUJw-149" target="o43FSoy_OmyfSq_FZUJw-153" edge="1">
          <mxGeometry relative="1" as="geometry" />
        </mxCell>
        <mxCell id="o43FSoy_OmyfSq_FZUJw-149" value="是否存在用户添加设备到设备微信卡片？" style="rhombus;whiteSpace=wrap;html=1;" parent="1" vertex="1">
          <mxGeometry x="370" y="1010" width="240" height="80" as="geometry" />
        </mxCell>
        <mxCell id="o43FSoy_OmyfSq_FZUJw-150" value="Yes" style="text;html=1;align=center;verticalAlign=middle;resizable=0;points=[];autosize=1;strokeColor=none;fillColor=none;" parent="1" vertex="1">
          <mxGeometry x="495" y="1110" width="30" height="20" as="geometry" />
        </mxCell>
        <mxCell id="o43FSoy_OmyfSq_FZUJw-151" value="end" style="whiteSpace=wrap;html=1;" parent="1" vertex="1">
          <mxGeometry x="145" y="1510" width="120" height="60" as="geometry" />
        </mxCell>
        <mxCell id="o43FSoy_OmyfSq_FZUJw-153" value="用户添加设备卡片状态是可用？" style="rhombus;whiteSpace=wrap;html=1;" parent="1" vertex="1">
          <mxGeometry x="370" y="1170" width="240" height="80" as="geometry" />
        </mxCell>
        <mxCell id="o43FSoy_OmyfSq_FZUJw-154" value="" style="endArrow=classic;html=1;rounded=0;" parent="1" target="o43FSoy_OmyfSq_FZUJw-143" edge="1">
          <mxGeometry width="50" height="50" relative="1" as="geometry">
            <mxPoint x="490" y="1250.0000000000002" as="sourcePoint" />
            <mxPoint x="520" y="1220" as="targetPoint" />
          </mxGeometry>
        </mxCell>
        <mxCell id="o43FSoy_OmyfSq_FZUJw-155" value="" style="endArrow=classic;html=1;rounded=0;exitX=1;exitY=0.5;exitDx=0;exitDy=0;entryX=1;entryY=0.5;entryDx=0;entryDy=0;" parent="1" source="o43FSoy_OmyfSq_FZUJw-153" target="o43FSoy_OmyfSq_FZUJw-149" edge="1">
          <mxGeometry width="50" height="50" relative="1" as="geometry">
            <mxPoint x="470" y="1270" as="sourcePoint" />
            <mxPoint x="680" y="1050" as="targetPoint" />
            <Array as="points">
              <mxPoint x="680" y="1210" />
              <mxPoint x="680" y="1050" />
            </Array>
          </mxGeometry>
        </mxCell>
        <mxCell id="o43FSoy_OmyfSq_FZUJw-156" value="No" style="edgeLabel;html=1;align=center;verticalAlign=middle;resizable=0;points=[];" parent="o43FSoy_OmyfSq_FZUJw-155" vertex="1" connectable="0">
          <mxGeometry x="-0.0691" y="1" relative="1" as="geometry">
            <mxPoint as="offset" />
          </mxGeometry>
        </mxCell>
        <mxCell id="o43FSoy_OmyfSq_FZUJw-157" value="Yes" style="text;html=1;align=center;verticalAlign=middle;resizable=0;points=[];autosize=1;strokeColor=none;fillColor=none;" parent="1" vertex="1">
          <mxGeometry x="485" y="1280" width="30" height="20" as="geometry" />
        </mxCell>
        <mxCell id="o43FSoy_OmyfSq_FZUJw-158" value="设备转移事件" style="rounded=1;whiteSpace=wrap;html=1;" parent="1" vertex="1">
          <mxGeometry x="-292.5" y="210" width="160" height="40" as="geometry" />
        </mxCell>
        <mxCell id="o43FSoy_OmyfSq_FZUJw-159" value="" style="edgeStyle=orthogonalEdgeStyle;rounded=0;orthogonalLoop=1;jettySize=auto;html=1;startArrow=none;" parent="1" source="o43FSoy_OmyfSq_FZUJw-162" target="o43FSoy_OmyfSq_FZUJw-161" edge="1">
          <mxGeometry relative="1" as="geometry">
            <Array as="points">
              <mxPoint x="-110" y="450" />
            </Array>
          </mxGeometry>
        </mxCell>
        <mxCell id="o43FSoy_OmyfSq_FZUJw-160" value="" style="endArrow=classic;html=1;rounded=0;exitX=0.5;exitY=1;exitDx=0;exitDy=0;entryX=0.452;entryY=0;entryDx=0;entryDy=0;entryPerimeter=0;" parent="1" source="o43FSoy_OmyfSq_FZUJw-158" edge="1">
          <mxGeometry width="50" height="50" relative="1" as="geometry">
            <mxPoint x="167.5" y="250" as="sourcePoint" />
            <mxPoint x="-214.3599999999999" y="410" as="targetPoint" />
          </mxGeometry>
        </mxCell>
        <mxCell id="o43FSoy_OmyfSq_FZUJw-161" value="end" style="whiteSpace=wrap;html=1;" parent="1" vertex="1">
          <mxGeometry x="-170" y="650" width="120" height="60" as="geometry" />
        </mxCell>
        <mxCell id="o43FSoy_OmyfSq_FZUJw-162" value="设备是否被注册到微信设备卡片" style="rhombus;whiteSpace=wrap;html=1;" parent="1" vertex="1">
          <mxGeometry x="-310" y="410" width="195" height="80" as="geometry" />
        </mxCell>
        <mxCell id="o43FSoy_OmyfSq_FZUJw-163" value="No" style="text;html=1;align=center;verticalAlign=middle;resizable=0;points=[];autosize=1;strokeColor=none;fillColor=none;" parent="1" vertex="1">
          <mxGeometry x="-145" y="580" width="30" height="20" as="geometry" />
        </mxCell>
        <mxCell id="o43FSoy_OmyfSq_FZUJw-164" value="Yes" style="text;html=1;align=center;verticalAlign=middle;resizable=0;points=[];autosize=1;strokeColor=none;fillColor=none;" parent="1" vertex="1">
          <mxGeometry x="-220" y="730" width="30" height="20" as="geometry" />
        </mxCell>
        <mxCell id="o43FSoy_OmyfSq_FZUJw-165" value="" style="edgeStyle=orthogonalEdgeStyle;rounded=0;orthogonalLoop=1;jettySize=auto;html=1;entryX=0;entryY=0;entryDx=0;entryDy=0;" parent="1" target="o43FSoy_OmyfSq_FZUJw-138" edge="1">
          <mxGeometry relative="1" as="geometry">
            <mxPoint x="-210" y="490" as="sourcePoint" />
            <mxPoint x="211" y="910" as="targetPoint" />
            <Array as="points">
              <mxPoint x="-210" y="880" />
            </Array>
          </mxGeometry>
        </mxCell>
        <mxCell id="o43FSoy_OmyfSq_FZUJw-166" value="No" style="text;html=1;align=center;verticalAlign=middle;resizable=0;points=[];autosize=1;strokeColor=none;fillColor=none;" parent="1" vertex="1">
          <mxGeometry x="355" y="570" width="30" height="20" as="geometry" />
        </mxCell>
        <mxCell id="miwg5lEgAK4DcnwGNJXC-1" value="" style="endArrow=classic;html=1;rounded=0;exitX=1;exitY=0.5;exitDx=0;exitDy=0;entryX=0.782;entryY=0.225;entryDx=0;entryDy=0;entryPerimeter=0;" edge="1" parent="1" source="o43FSoy_OmyfSq_FZUJw-145" target="o43FSoy_OmyfSq_FZUJw-149">
          <mxGeometry width="50" height="50" relative="1" as="geometry">
            <mxPoint x="570" y="1370" as="sourcePoint" />
            <mxPoint x="610" y="980" as="targetPoint" />
            <Array as="points">
              <mxPoint x="640" y="1540" />
              <mxPoint x="640" y="1028" />
            </Array>
          </mxGeometry>
        </mxCell>
      </root>
    </mxGraphModel>
  </diagram>
  <diagram id="iUl8u5EodhLYMQqsJAu2" name="Page-5">
    <mxGraphModel dx="782" dy="513" grid="1" gridSize="10" guides="1" tooltips="1" connect="1" arrows="1" fold="1" page="1" pageScale="1" pageWidth="827" pageHeight="1169" math="0" shadow="0">
      <root>
        <mxCell id="0" />
        <mxCell id="1" parent="0" />
      </root>
    </mxGraphModel>
  </diagram>
</mxfile>
